@startuml

[*] ----> CHAR

CHAR: Normaler Buchstabe
DELIMITER: ","
OPENING_FELDBEGRENZER:
IN_FELDBEGRENZER:
CLOSING_FELDBEGRENZER:

CHAR --> DELIMITER: if the character is the delimiter\nindexCounter++\nthen add new element to fields array
CHAR --> OPENING_FELDBEGRENZER: if the character is Feldbegrenzer

OPENING_FELDBEGRENZER --> IN_FELDBEGRENZER

IN_FELDBEGRENZER --> IN_FELDBEGRENZER
IN_FELDBEGRENZER --> CLOSING_FELDBEGRENZER: if the character is Feldbegrenzer

DELIMITER --> CHAR: if char is not the delimiter\nadd current char to fields array
DELIMITER --> DELIMITER: if the character is the delimiter \nindexCounter++\nthen add new element to fields array
DELIMITER --> OPENING_FELDBEGRENZER: if char is Feldbegrenzer
@enduml